<?xml version="1.0" encoding="utf-8" standalone="no"?>
<!DOCTYPE svg PUBLIC "-//W3C//DTD SVG 1.1//EN"
  "http://www.w3.org/Graphics/SVG/1.1/DTD/svg11.dtd">
<svg xmlns:xlink="http://www.w3.org/1999/xlink" width="777.6pt" height="460.8pt" viewBox="0 0 777.6 460.8" xmlns="http://www.w3.org/2000/svg" version="1.1">
 <metadata>
  <rdf:RDF xmlns:dc="http://purl.org/dc/elements/1.1/" xmlns:cc="http://creativecommons.org/ns#" xmlns:rdf="http://www.w3.org/1999/02/22-rdf-syntax-ns#">
   <cc:Work>
    <dc:type rdf:resource="http://purl.org/dc/dcmitype/StillImage"/>
    <dc:format>image/svg+xml</dc:format>
    <dc:creator>
     <cc:Agent>
      <dc:title>Atlas Economico de Argentina Figure Kernel v0.2</dc:title>
     </cc:Agent>
    </dc:creator>
   </cc:Work>
  </rdf:RDF>
 </metadata>
 <defs>
  <style type="text/css">*{stroke-linejoin: round; stroke-linecap: butt}</style>
 </defs>
 <g id="figure_1">
  <g id="patch_1">
   <path d="M 0 460.8 
L 777.6 460.8 
L 777.6 0 
L 0 0 
z
" style="fill: #ffffff"/>
  </g>
  <g id="axes_1">
   <g id="patch_2">
    <path d="M 69.984 405.504 
L 699.84 405.504 
L 699.84 78.336 
L 69.984 78.336 
z
" style="fill: #ffffff"/>
   </g>
   <g id="matplotlib.axis_1">
    <g id="xtick_1">
     <g id="line2d_1">
      <defs>
       <path id="m1d9601edcd" d="M 0 0 
L 0 3.5 
" style="stroke: #000000; stroke-width: 0.8"/>
      </defs>
      <g>
       <use xlink:href="#m1d9601edcd" x="98.363176" y="405.504" style="stroke: #000000; stroke-width: 0.8"/>
      </g>
     </g>
     <g id="text_1">
      <!-- 2024 -->
      <g transform="translate(86.274426 419.721773) scale(0.095 -0.095)">
       <defs>
        <path id="DejaVuSans-15" d="M 1228 531 
L 3431 531 
L 3431 0 
L 469 0 
L 469 531 
Q 828 903 1448 1529 
Q 2069 2156 2228 2338 
Q 2531 2678 2651 2914 
Q 2772 3150 2772 3378 
Q 2772 3750 2511 3984 
Q 2250 4219 1831 4219 
Q 1534 4219 1204 4116 
Q 875 4013 500 3803 
L 500 4441 
Q 881 4594 1212 4672 
Q 1544 4750 1819 4750 
Q 2544 4750 2975 4387 
Q 3406 4025 3406 3419 
Q 3406 3131 3298 2873 
Q 3191 2616 2906 2266 
Q 2828 2175 2409 1742 
Q 1991 1309 1228 531 
z
" transform="scale(0.015625)"/>
        <path id="DejaVuSans-13" d="M 2034 4250 
Q 1547 4250 1301 3770 
Q 1056 3291 1056 2328 
Q 1056 1369 1301 889 
Q 1547 409 2034 409 
Q 2525 409 2770 889 
Q 3016 1369 3016 2328 
Q 3016 3291 2770 3770 
Q 2525 4250 2034 4250 
z
M 2034 4750 
Q 2819 4750 3233 4129 
Q 3647 3509 3647 2328 
Q 3647 1150 3233 529 
Q 2819 -91 2034 -91 
Q 1250 -91 836 529 
Q 422 1150 422 2328 
Q 422 3509 836 4129 
Q 1250 4750 2034 4750 
z
" transform="scale(0.015625)"/>
        <path id="DejaVuSans-17" d="M 2419 4116 
L 825 1625 
L 2419 1625 
L 2419 4116 
z
M 2253 4666 
L 3047 4666 
L 3047 1625 
L 3713 1625 
L 3713 1100 
L 3047 1100 
L 3047 0 
L 2419 0 
L 2419 1100 
L 313 1100 
L 313 1709 
L 2253 4666 
z
" transform="scale(0.015625)"/>
       </defs>
       <use xlink:href="#DejaVuSans-15"/>
       <use xlink:href="#DejaVuSans-13" transform="translate(63.625 0)"/>
       <use xlink:href="#DejaVuSans-15" transform="translate(127.25 0)"/>
       <use xlink:href="#DejaVuSans-17" transform="translate(190.875 0)"/>
      </g>
     </g>
    </g>
    <g id="xtick_2">
     <g id="line2d_2">
      <g>
       <use xlink:href="#m1d9601edcd" x="211.124011" y="405.504" style="stroke: #000000; stroke-width: 0.8"/>
      </g>
     </g>
     <g id="text_2">
      <!-- Jul -->
      <g transform="translate(205.392839 419.722516) scale(0.095 -0.095)">
       <defs>
        <path id="DejaVuSans-2d" d="M 628 4666 
L 1259 4666 
L 1259 325 
Q 1259 -519 939 -900 
Q 619 -1281 -91 -1281 
L -331 -1281 
L -331 -750 
L -134 -750 
Q 284 -750 456 -515 
Q 628 -281 628 325 
L 628 4666 
z
" transform="scale(0.015625)"/>
        <path id="DejaVuSans-58" d="M 544 1381 
L 544 3500 
L 1119 3500 
L 1119 1403 
Q 1119 906 1312 657 
Q 1506 409 1894 409 
Q 2359 409 2629 706 
Q 2900 1003 2900 1516 
L 2900 3500 
L 3475 3500 
L 3475 0 
L 2900 0 
L 2900 538 
Q 2691 219 2414 64 
Q 2138 -91 1772 -91 
Q 1169 -91 856 284 
Q 544 659 544 1381 
z
M 1991 3584 
L 1991 3584 
z
" transform="scale(0.015625)"/>
        <path id="DejaVuSans-4f" d="M 603 4863 
L 1178 4863 
L 1178 0 
L 603 0 
L 603 4863 
z
" transform="scale(0.015625)"/>
       </defs>
       <use xlink:href="#DejaVuSans-2d"/>
       <use xlink:href="#DejaVuSans-58" transform="translate(29.5 0)"/>
       <use xlink:href="#DejaVuSans-4f" transform="translate(92.875 0)"/>
      </g>
     </g>
    </g>
    <g id="xtick_3">
     <g id="line2d_3">
      <g>
       <use xlink:href="#m1d9601edcd" x="325.123975" y="405.504" style="stroke: #000000; stroke-width: 0.8"/>
      </g>
     </g>
     <g id="text_3">
      <!-- 2025 -->
      <g transform="translate(313.035225 419.721773) scale(0.095 -0.095)">
       <defs>
        <path id="DejaVuSans-18" d="M 691 4666 
L 3169 4666 
L 3169 4134 
L 1269 4134 
L 1269 2991 
Q 1406 3038 1543 3061 
Q 1681 3084 1819 3084 
Q 2600 3084 3056 2656 
Q 3513 2228 3513 1497 
Q 3513 744 3044 326 
Q 2575 -91 1722 -91 
Q 1428 -91 1123 -41 
Q 819 9 494 109 
L 494 744 
Q 775 591 1075 516 
Q 1375 441 1709 441 
Q 2250 441 2565 725 
Q 2881 1009 2881 1497 
Q 2881 1984 2565 2268 
Q 2250 2553 1709 2553 
Q 1456 2553 1204 2497 
Q 953 2441 691 2322 
L 691 4666 
z
" transform="scale(0.015625)"/>
       </defs>
       <use xlink:href="#DejaVuSans-15"/>
       <use xlink:href="#DejaVuSans-13" transform="translate(63.625 0)"/>
       <use xlink:href="#DejaVuSans-15" transform="translate(127.25 0)"/>
       <use xlink:href="#DejaVuSans-18" transform="translate(190.875 0)"/>
      </g>
     </g>
    </g>
    <g id="xtick_4">
     <g id="line2d_4">
      <g>
       <use xlink:href="#m1d9601edcd" x="437.265245" y="405.504" style="stroke: #000000; stroke-width: 0.8"/>
      </g>
     </g>
     <g id="text_4">
      <!-- Jul -->
      <g transform="translate(431.534073 419.722516) scale(0.095 -0.095)">
       <use xlink:href="#DejaVuSans-2d"/>
       <use xlink:href="#DejaVuSans-58" transform="translate(29.5 0)"/>
       <use xlink:href="#DejaVuSans-4f" transform="translate(92.875 0)"/>
      </g>
     </g>
    </g>
    <g id="xtick_5">
     <g id="line2d_5">
      <g>
       <use xlink:href="#m1d9601edcd" x="551.265209" y="405.504" style="stroke: #000000; stroke-width: 0.8"/>
      </g>
     </g>
     <g id="text_5">
      <!-- 2026 -->
      <g transform="translate(539.176459 419.721773) scale(0.095 -0.095)">
       <defs>
        <path id="DejaVuSans-19" d="M 2113 2584 
Q 1688 2584 1439 2293 
Q 1191 2003 1191 1497 
Q 1191 994 1439 701 
Q 1688 409 2113 409 
Q 2538 409 2786 701 
Q 3034 994 3034 1497 
Q 3034 2003 2786 2293 
Q 2538 2584 2113 2584 
z
M 3366 4563 
L 3366 3988 
Q 3128 4100 2886 4159 
Q 2644 4219 2406 4219 
Q 1781 4219 1451 3797 
Q 1122 3375 1075 2522 
Q 1259 2794 1537 2939 
Q 1816 3084 2150 3084 
Q 2853 3084 3261 2657 
Q 3669 2231 3669 1497 
Q 3669 778 3244 343 
Q 2819 -91 2113 -91 
Q 1303 -91 875 529 
Q 447 1150 447 2328 
Q 447 3434 972 4092 
Q 1497 4750 2381 4750 
Q 2619 4750 2861 4703 
Q 3103 4656 3366 4563 
z
" transform="scale(0.015625)"/>
       </defs>
       <use xlink:href="#DejaVuSans-15"/>
       <use xlink:href="#DejaVuSans-13" transform="translate(63.625 0)"/>
       <use xlink:href="#DejaVuSans-15" transform="translate(127.25 0)"/>
       <use xlink:href="#DejaVuSans-19" transform="translate(190.875 0)"/>
      </g>
     </g>
    </g>
    <g id="xtick_6">
     <g id="line2d_6">
      <g>
       <use xlink:href="#m1d9601edcd" x="663.406479" y="405.504" style="stroke: #000000; stroke-width: 0.8"/>
      </g>
     </g>
     <g id="text_6">
      <!-- Jul -->
      <g transform="translate(657.675307 419.722516) scale(0.095 -0.095)">
       <use xlink:href="#DejaVuSans-2d"/>
       <use xlink:href="#DejaVuSans-58" transform="translate(29.5 0)"/>
       <use xlink:href="#DejaVuSans-4f" transform="translate(92.875 0)"/>
      </g>
     </g>
    </g>
   </g>
   <g id="matplotlib.axis_2">
    <g id="ytick_1">
     <g id="line2d_7">
      <path d="M 69.984 380.453576 
L 699.84 380.453576 
" clip-path="url(#p5151405195)" style="fill: none; stroke: #b0b0b0; stroke-opacity: 0.18; stroke-width: 0.8; stroke-linecap: square"/>
     </g>
     <g id="line2d_8">
      <defs>
       <path id="m4c59548e7c" d="M 0 0 
L -3.5 0 
" style="stroke: #000000; stroke-width: 0.8"/>
      </defs>
      <g>
       <use xlink:href="#m4c59548e7c" x="69.984" y="380.453576" style="stroke: #000000; stroke-width: 0.8"/>
      </g>
     </g>
     <g id="text_7">
      <!-- 400 -->
      <g transform="translate(44.850875 384.062463) scale(0.095 -0.095)">
       <use xlink:href="#DejaVuSans-17"/>
       <use xlink:href="#DejaVuSans-13" transform="translate(63.625 0)"/>
       <use xlink:href="#DejaVuSans-13" transform="translate(127.25 0)"/>
      </g>
     </g>
    </g>
    <g id="ytick_2">
     <g id="line2d_9">
      <path d="M 69.984 328.219316 
L 699.84 328.219316 
" clip-path="url(#p5151405195)" style="fill: none; stroke: #b0b0b0; stroke-opacity: 0.18; stroke-width: 0.8; stroke-linecap: square"/>
     </g>
     <g id="line2d_10">
      <g>
       <use xlink:href="#m4c59548e7c" x="69.984" y="328.219316" style="stroke: #000000; stroke-width: 0.8"/>
      </g>
     </g>
     <g id="text_8">
      <!-- 600 -->
      <g transform="translate(44.850875 331.828203) scale(0.095 -0.095)">
       <use xlink:href="#DejaVuSans-19"/>
       <use xlink:href="#DejaVuSans-13" transform="translate(63.625 0)"/>
       <use xlink:href="#DejaVuSans-13" transform="translate(127.25 0)"/>
      </g>
     </g>
    </g>
    <g id="ytick_3">
     <g id="line2d_11">
      <path d="M 69.984 275.985056 
L 699.84 275.985056 
" clip-path="url(#p5151405195)" style="fill: none; stroke: #b0b0b0; stroke-opacity: 0.18; stroke-width: 0.8; stroke-linecap: square"/>
     </g>
     <g id="line2d_12">
      <g>
       <use xlink:href="#m4c59548e7c" x="69.984" y="275.985056" style="stroke: #000000; stroke-width: 0.8"/>
      </g>
     </g>
     <g id="text_9">
      <!-- 800 -->
      <g transform="translate(44.850875 279.593943) scale(0.095 -0.095)">
       <defs>
        <path id="DejaVuSans-1b" d="M 2034 2216 
Q 1584 2216 1326 1975 
Q 1069 1734 1069 1313 
Q 1069 891 1326 650 
Q 1584 409 2034 409 
Q 2484 409 2743 651 
Q 3003 894 3003 1313 
Q 3003 1734 2745 1975 
Q 2488 2216 2034 2216 
z
M 1403 2484 
Q 997 2584 770 2862 
Q 544 3141 544 3541 
Q 544 4100 942 4425 
Q 1341 4750 2034 4750 
Q 2731 4750 3128 4425 
Q 3525 4100 3525 3541 
Q 3525 3141 3298 2862 
Q 3072 2584 2669 2484 
Q 3125 2378 3379 2068 
Q 3634 1759 3634 1313 
Q 3634 634 3220 271 
Q 2806 -91 2034 -91 
Q 1263 -91 848 271 
Q 434 634 434 1313 
Q 434 1759 690 2068 
Q 947 2378 1403 2484 
z
M 1172 3481 
Q 1172 3119 1398 2916 
Q 1625 2713 2034 2713 
Q 2441 2713 2670 2916 
Q 2900 3119 2900 3481 
Q 2900 3844 2670 4047 
Q 2441 4250 2034 4250 
Q 1625 4250 1398 4047 
Q 1172 3844 1172 3481 
z
" transform="scale(0.015625)"/>
       </defs>
       <use xlink:href="#DejaVuSans-1b"/>
       <use xlink:href="#DejaVuSans-13" transform="translate(63.625 0)"/>
       <use xlink:href="#DejaVuSans-13" transform="translate(127.25 0)"/>
      </g>
     </g>
    </g>
    <g id="ytick_4">
     <g id="line2d_13">
      <path d="M 69.984 223.750796 
L 699.84 223.750796 
" clip-path="url(#p5151405195)" style="fill: none; stroke: #b0b0b0; stroke-opacity: 0.18; stroke-width: 0.8; stroke-linecap: square"/>
     </g>
     <g id="line2d_14">
      <g>
       <use xlink:href="#m4c59548e7c" x="69.984" y="223.750796" style="stroke: #000000; stroke-width: 0.8"/>
      </g>
     </g>
     <g id="text_10">
      <!-- 1000 -->
      <g transform="translate(38.8065 227.359683) scale(0.095 -0.095)">
       <defs>
        <path id="DejaVuSans-14" d="M 794 531 
L 1825 531 
L 1825 4091 
L 703 3866 
L 703 4441 
L 1819 4666 
L 2450 4666 
L 2450 531 
L 3481 531 
L 3481 0 
L 794 0 
L 794 531 
z
" transform="scale(0.015625)"/>
       </defs>
       <use xlink:href="#DejaVuSans-14"/>
       <use xlink:href="#DejaVuSans-13" transform="translate(63.625 0)"/>
       <use xlink:href="#DejaVuSans-13" transform="translate(127.25 0)"/>
       <use xlink:href="#DejaVuSans-13" transform="translate(190.875 0)"/>
      </g>
     </g>
    </g>
    <g id="ytick_5">
     <g id="line2d_15">
      <path d="M 69.984 171.516536 
L 699.84 171.516536 
" clip-path="url(#p5151405195)" style="fill: none; stroke: #b0b0b0; stroke-opacity: 0.18; stroke-width: 0.8; stroke-linecap: square"/>
     </g>
     <g id="line2d_16">
      <g>
       <use xlink:href="#m4c59548e7c" x="69.984" y="171.516536" style="stroke: #000000; stroke-width: 0.8"/>
      </g>
     </g>
     <g id="text_11">
      <!-- 1200 -->
      <g transform="translate(38.8065 175.125423) scale(0.095 -0.095)">
       <use xlink:href="#DejaVuSans-14"/>
       <use xlink:href="#DejaVuSans-15" transform="translate(63.625 0)"/>
       <use xlink:href="#DejaVuSans-13" transform="translate(127.25 0)"/>
       <use xlink:href="#DejaVuSans-13" transform="translate(190.875 0)"/>
      </g>
     </g>
    </g>
    <g id="ytick_6">
     <g id="line2d_17">
      <path d="M 69.984 119.282276 
L 699.84 119.282276 
" clip-path="url(#p5151405195)" style="fill: none; stroke: #b0b0b0; stroke-opacity: 0.18; stroke-width: 0.8; stroke-linecap: square"/>
     </g>
     <g id="line2d_18">
      <g>
       <use xlink:href="#m4c59548e7c" x="69.984" y="119.282276" style="stroke: #000000; stroke-width: 0.8"/>
      </g>
     </g>
     <g id="text_12">
      <!-- 1400 -->
      <g transform="translate(38.8065 122.891163) scale(0.095 -0.095)">
       <use xlink:href="#DejaVuSans-14"/>
       <use xlink:href="#DejaVuSans-17" transform="translate(63.625 0)"/>
       <use xlink:href="#DejaVuSans-13" transform="translate(127.25 0)"/>
       <use xlink:href="#DejaVuSans-13" transform="translate(190.875 0)"/>
      </g>
     </g>
    </g>
    <g id="text_13">
     <!-- ARS per USD -->
     <g transform="translate(32.404156 274.156719) rotate(-90) scale(0.1 -0.1)">
      <defs>
       <path id="DejaVuSans-24" d="M 2188 4044 
L 1331 1722 
L 3047 1722 
L 2188 4044 
z
M 1831 4666 
L 2547 4666 
L 4325 0 
L 3669 0 
L 3244 1197 
L 1141 1197 
L 716 0 
L 50 0 
L 1831 4666 
z
" transform="scale(0.015625)"/>
       <path id="DejaVuSans-35" d="M 2841 2188 
Q 3044 2119 3236 1894 
Q 3428 1669 3622 1275 
L 4263 0 
L 3584 0 
L 2988 1197 
Q 2756 1666 2539 1819 
Q 2322 1972 1947 1972 
L 1259 1972 
L 1259 0 
L 628 0 
L 628 4666 
L 2053 4666 
Q 2853 4666 3247 4331 
Q 3641 3997 3641 3322 
Q 3641 2881 3436 2590 
Q 3231 2300 2841 2188 
z
M 1259 4147 
L 1259 2491 
L 2053 2491 
Q 2509 2491 2742 2702 
Q 2975 2913 2975 3322 
Q 2975 3731 2742 3939 
Q 2509 4147 2053 4147 
L 1259 4147 
z
" transform="scale(0.015625)"/>
       <path id="DejaVuSans-36" d="M 3425 4513 
L 3425 3897 
Q 3066 4069 2747 4153 
Q 2428 4238 2131 4238 
Q 1616 4238 1336 4038 
Q 1056 3838 1056 3469 
Q 1056 3159 1242 3001 
Q 1428 2844 1947 2747 
L 2328 2669 
Q 3034 2534 3370 2195 
Q 3706 1856 3706 1288 
Q 3706 609 3251 259 
Q 2797 -91 1919 -91 
Q 1588 -91 1214 -16 
Q 841 59 441 206 
L 441 856 
Q 825 641 1194 531 
Q 1563 422 1919 422 
Q 2459 422 2753 634 
Q 3047 847 3047 1241 
Q 3047 1584 2836 1778 
Q 2625 1972 2144 2069 
L 1759 2144 
Q 1053 2284 737 2584 
Q 422 2884 422 3419 
Q 422 4038 858 4394 
Q 1294 4750 2059 4750 
Q 2388 4750 2728 4690 
Q 3069 4631 3425 4513 
z
" transform="scale(0.015625)"/>
       <path id="DejaVuSans-3" transform="scale(0.015625)"/>
       <path id="DejaVuSans-53" d="M 1159 525 
L 1159 -1331 
L 581 -1331 
L 581 3500 
L 1159 3500 
L 1159 2969 
Q 1341 3281 1617 3432 
Q 1894 3584 2278 3584 
Q 2916 3584 3314 3078 
Q 3713 2572 3713 1747 
Q 3713 922 3314 415 
Q 2916 -91 2278 -91 
Q 1894 -91 1617 61 
Q 1341 213 1159 525 
z
M 3116 1747 
Q 3116 2381 2855 2742 
Q 2594 3103 2138 3103 
Q 1681 3103 1420 2742 
Q 1159 2381 1159 1747 
Q 1159 1113 1420 752 
Q 1681 391 2138 391 
Q 2594 391 2855 752 
Q 3116 1113 3116 1747 
z
" transform="scale(0.015625)"/>
       <path id="DejaVuSans-48" d="M 3597 1894 
L 3597 1613 
L 953 1613 
Q 991 1019 1311 708 
Q 1631 397 2203 397 
Q 2534 397 2845 478 
Q 3156 559 3463 722 
L 3463 178 
Q 3153 47 2828 -22 
Q 2503 -91 2169 -91 
Q 1331 -91 842 396 
Q 353 884 353 1716 
Q 353 2575 817 3079 
Q 1281 3584 2069 3584 
Q 2775 3584 3186 3129 
Q 3597 2675 3597 1894 
z
M 3022 2063 
Q 3016 2534 2758 2815 
Q 2500 3097 2075 3097 
Q 1594 3097 1305 2825 
Q 1016 2553 972 2059 
L 3022 2063 
z
" transform="scale(0.015625)"/>
       <path id="DejaVuSans-55" d="M 2631 2963 
Q 2534 3019 2420 3045 
Q 2306 3072 2169 3072 
Q 1681 3072 1420 2755 
Q 1159 2438 1159 1844 
L 1159 0 
L 581 0 
L 581 3500 
L 1159 3500 
L 1159 2956 
Q 1341 3275 1631 3429 
Q 1922 3584 2338 3584 
Q 2397 3584 2469 3576 
Q 2541 3569 2628 3553 
L 2631 2963 
z
" transform="scale(0.015625)"/>
       <path id="DejaVuSans-38" d="M 556 4666 
L 1191 4666 
L 1191 1831 
Q 1191 1081 1462 751 
Q 1734 422 2344 422 
Q 2950 422 3222 751 
Q 3494 1081 3494 1831 
L 3494 4666 
L 4128 4666 
L 4128 1753 
Q 4128 841 3676 375 
Q 3225 -91 2344 -91 
Q 1459 -91 1007 375 
Q 556 841 556 1753 
L 556 4666 
z
" transform="scale(0.015625)"/>
       <path id="DejaVuSans-27" d="M 1259 4147 
L 1259 519 
L 2022 519 
Q 2988 519 3436 956 
Q 3884 1394 3884 2338 
Q 3884 3275 3436 3711 
Q 2988 4147 2022 4147 
L 1259 4147 
z
M 628 4666 
L 1925 4666 
Q 3281 4666 3915 4102 
Q 4550 3538 4550 2338 
Q 4550 1131 3912 565 
Q 3275 0 1925 0 
L 628 0 
L 628 4666 
z
" transform="scale(0.015625)"/>
      </defs>
      <use xlink:href="#DejaVuSans-24"/>
      <use xlink:href="#DejaVuSans-35" transform="translate(68.40625 0)"/>
      <use xlink:href="#DejaVuSans-36" transform="translate(137.890625 0)"/>
      <use xlink:href="#DejaVuSans-3" transform="translate(201.375 0)"/>
      <use xlink:href="#DejaVuSans-53" transform="translate(233.15625 0)"/>
      <use xlink:href="#DejaVuSans-48" transform="translate(296.640625 0)"/>
      <use xlink:href="#DejaVuSans-55" transform="translate(358.171875 0)"/>
      <use xlink:href="#DejaVuSans-3" transform="translate(399.28125 0)"/>
      <use xlink:href="#DejaVuSans-38" transform="translate(431.0625 0)"/>
      <use xlink:href="#DejaVuSans-36" transform="translate(504.25 0)"/>
      <use xlink:href="#DejaVuSans-27" transform="translate(567.734375 0)"/>
     </g>
    </g>
   </g>
   <g id="line2d_19">
    <path d="M 79.15666 390.632727 
L 85.971875 389.202814 
L 86.59144 275.991585 
L 102.700131 272.367833 
L 109.515346 270.826923 
L 122.526212 267.823453 
L 137.395773 264.428226 
L 138.015338 264.167055 
L 142.352293 263.252955 
L 142.971858 262.991784 
L 147.308813 262.077684 
L 147.928378 261.816513 
L 151.645768 260.989462 
L 160.939243 258.813043 
L 161.558809 258.551872 
L 165.276199 257.768358 
L 165.895764 257.507186 
L 169.613154 256.723672 
L 170.232719 256.462501 
L 180.765324 253.981374 
L 181.384889 253.720203 
L 183.243584 253.328446 
L 186.34141 252.544932 
L 187.58054 252.28376 
L 190.678365 251.500246 
L 191.29793 251.369661 
L 191.917495 251.10849 
L 194.395755 250.673195 
L 195.01532 250.324976 
L 196.25445 250.107342 
L 199.352275 249.28029 
L 200.591405 249.17146 
L 203.68923 248.300898 
L 208.026185 247.060334 
L 208.64575 246.8427 
L 209.265315 246.799163 
L 211.743576 245.906819 
L 212.982706 245.710941 
L 213.602271 245.10155 
L 215.460966 244.927427 
L 217.319661 244.513914 
L 217.939226 244.18745 
L 221.037051 243.643352 
L 221.656616 243.403936 
L 222.276181 242.881594 
L 224.754441 242.729252 
L 225.374006 242.381007 
L 225.993571 242.250421 
L 226.613136 241.619274 
L 228.471831 241.575737 
L 230.330526 241.140443 
L 230.950091 240.705175 
L 232.808786 240.531052 
L 234.667481 240.052247 
L 235.287046 239.508122 
L 237.145742 239.464611 
L 237.765307 239.334025 
L 238.384872 238.98578 
L 239.004437 238.898731 
L 239.624002 238.376389 
L 242.102262 238.158755 
L 243.341392 237.788753 
L 243.960957 237.288166 
L 247.058782 236.787605 
L 247.678347 236.635238 
L 248.297912 236.069384 
L 250.156607 236.09114 
L 250.776172 235.721138 
L 252.015302 235.52526 
L 252.634867 234.937624 
L 255.113127 234.676453 
L 256.352257 234.284696 
L 256.971822 233.740598 
L 259.450082 233.566475 
L 260.069647 233.327086 
L 260.689213 233.218255 
L 261.308778 232.695913 
L 263.787038 232.434742 
L 265.645733 231.433594 
L 268.123993 231.259471 
L 268.743558 231.128885 
L 269.363123 230.867714 
L 269.982688 230.323616 
L 273.080513 229.953614 
L 273.700078 229.126563 
L 276.797903 228.821881 
L 277.417468 228.560709 
L 278.037033 228.517172 
L 278.656598 227.973074 
L 281.134858 227.711903 
L 281.754423 227.42895 
L 282.373988 227.320146 
L 282.993553 226.797803 
L 285.471813 226.558387 
L 286.091379 226.297216 
L 286.710944 226.16663 
L 287.330509 225.644288 
L 289.189204 225.491947 
L 289.808769 225.121945 
L 291.047899 224.969604 
L 291.667464 224.469017 
L 293.526159 224.338431 
L 294.145724 224.07726 
L 295.384854 223.816089 
L 296.004419 223.032575 
L 299.102244 222.771403 
L 299.721809 222.510232 
L 300.341374 221.98789 
L 302.819634 221.726718 
L 303.439199 221.465547 
L 304.058764 221.334961 
L 304.678329 220.682033 
L 306.537024 220.638496 
L 307.156589 220.312032 
L 307.776154 220.290276 
L 308.395719 220.137935 
L 309.015284 219.637348 
L 312.11311 219.115005 
L 312.732675 218.853834 
L 313.35224 218.331491 
L 315.8305 218.048564 
L 317.06963 217.678563 
L 317.689195 217.112683 
L 319.54789 216.503292 
L 321.406585 216.176828 
L 322.02615 215.785071 
L 323.884845 215.262729 
L 325.74354 215.197436 
L 326.363105 214.675093 
L 329.46093 214.152751 
L 330.080495 213.891579 
L 330.70006 213.369237 
L 332.558755 213.238651 
L 333.17832 212.97748 
L 334.41745 212.716308 
L 335.037015 212.128673 
L 337.515276 211.758672 
L 338.134841 211.410452 
L 338.754406 211.301622 
L 339.373971 210.801061 
L 341.852231 210.452815 
L 343.091361 210.039303 
L 343.710926 209.778131 
L 346.189186 209.582253 
L 348.047881 209.146959 
L 351.145706 208.896678 
L 351.765271 208.744337 
L 352.384836 208.472275 
L 356.102226 208.113164 
L 356.721791 207.851993 
L 359.200051 207.656114 
L 360.439182 207.460236 
L 361.058747 206.937893 
L 364.776137 206.872601 
L 365.395702 206.502599 
L 368.493527 206.284965 
L 369.113092 206.219672 
L 369.732657 205.849671 
L 372.210917 205.69733 
L 373.450047 205.512342 
L 374.069612 205.120585 
L 376.547872 205.055292 
L 378.406567 204.587352 
L 380.265262 204.456766 
L 380.884827 204.282643 
L 382.123957 204.206486 
L 382.743522 203.934423 
L 385.221783 203.749436 
L 387.080478 203.281495 
L 388.939173 176.108789 
L 389.558738 171.298902 
L 390.178303 178.611698 
L 393.276128 205.359975 
L 393.895693 199.374817 
L 394.515258 191.757312 
L 395.134823 177.675817 
L 395.754388 178.263452 
L 397.613083 181.136337 
L 398.232648 179.177552 
L 401.950038 177.131719 
L 402.569603 170.515388 
L 403.189168 183.661001 
L 403.808733 193.063168 
L 404.428298 194.086098 
L 406.286993 190.843212 
L 406.906558 190.93026 
L 407.526123 189.842064 
L 408.145688 188.362085 
L 408.765253 185.576249 
L 410.623949 188.688549 
L 411.243514 186.664471 
L 411.863079 185.880957 
L 412.482644 186.250959 
L 413.102209 187.970328 
L 414.960904 187.230351 
L 415.580469 185.097443 
L 416.819599 178.176404 
L 417.439164 172.735344 
L 419.297859 176.435253 
L 419.917424 175.695277 
L 420.536989 175.608228 
L 421.156554 174.215297 
L 421.776119 174.128249 
L 423.634814 175.064104 
L 424.254379 174.911763 
L 424.873944 175.564691 
L 425.493509 175.30352 
L 426.113074 174.73764 
L 428.591334 176.718206 
L 429.210899 184.31393 
L 429.830464 182.964536 
L 432.308724 180.04814 
L 432.928289 177.784647 
L 433.547854 177.697599 
L 434.167419 172.909441 
L 434.786985 174.171786 
L 436.64568 173.061808 
L 437.265245 170.733022 
L 437.88481 163.333177 
L 438.504375 164.486666 
L 439.12394 161.113221 
L 440.982635 156.390356 
L 441.6022 156.3686 
L 442.84133 155.541549 
L 443.460895 155.432745 
L 445.31959 154.235693 
L 445.939155 151.406346 
L 446.55872 155.868013 
L 447.178285 154.213937 
L 447.79785 149.621684 
L 449.656545 149.055804 
L 450.27611 154.235693 
L 450.895675 155.933306 
L 451.51524 155.323915 
L 452.134805 151.210467 
L 453.9935 148.707584 
L 454.613065 146.269968 
L 455.23263 146.922896 
L 455.852195 131.862035 
L 456.47176 129.380908 
L 458.330455 129.250322 
L 458.95002 132.036132 
L 459.569586 136.60663 
L 460.189151 137.28134 
L 460.808716 137.716608 
L 462.667411 137.433681 
L 463.286976 139.784223 
L 463.906541 140.698322 
L 464.526106 143.222987 
L 467.004366 145.704114 
L 467.623931 147.401728 
L 468.243496 145.791163 
L 469.482626 139.762467 
L 472.580451 129.881469 
L 473.200016 133.994917 
L 473.819581 139.174832 
L 475.678276 126.812706 
L 476.297841 127.574465 
L 476.917406 129.685591 
L 477.536971 129.119737 
L 478.156536 128.314441 
L 480.015231 113.49297 
L 480.634796 114.407069 
L 481.254361 114.080605 
L 481.873926 112.078309 
L 482.493491 106.963687 
L 484.352187 103.089655 
L 484.971752 102.39319 
L 485.591317 100.630283 
L 486.210882 99.890307 
L 486.830447 99.759721 
L 488.689142 112.57887 
L 489.308707 131.252618 
L 489.928272 134.081992 
L 490.547837 138.848368 
L 491.167402 137.041924 
L 493.026097 134.691383 
L 493.645662 128.009759 
L 494.265227 113.057702 
L 494.884792 112.818286 
L 495.504357 112.818286 
L 497.363052 111.51243 
L 498.602182 111.51243 
L 499.221747 105.766661 
L 501.700007 132.950232 
L 502.939137 126.203315 
L 503.558702 122.633965 
L 504.178267 108.966009 
L 506.036962 102.872021 
L 506.656527 97.148008 
L 507.276092 96.538617 
L 507.895657 97.343887 
L 508.515222 96.8433 
L 510.373918 124.788629 
L 510.993483 100.782651 
L 512.232613 110.4895 
L 512.852178 108.05191 
L 514.710873 104.286682 
L 515.330438 100.173234 
L 515.950003 106.876639 
L 517.189133 108.443667 
L 519.047828 114.232973 
L 519.667393 114.972949 
L 520.286958 118.759933 
L 520.906523 116.975271 
L 521.526088 117.976419 
L 523.384783 119.021105 
L 524.004348 122.416331 
L 525.243478 114.929412 
L 528.960868 106.615468 
L 529.580433 106.746053 
L 530.199998 106.027832 
L 532.058693 106.463127 
L 532.678258 105.287856 
L 533.297823 105.309611 
L 533.917388 106.397834 
L 534.536954 109.205425 
L 537.015214 109.510108 
L 537.634779 108.987765 
L 538.254344 109.292474 
L 538.873909 109.248936 
L 540.732604 108.878961 
L 541.352169 105.875491 
L 541.971734 106.593712 
L 542.591299 105.39666 
L 543.210864 105.636075 
L 545.069559 106.114881 
L 547.547819 105.984295 
L 549.406514 104.93961 
L 550.026079 103.764339 
L 551.884774 101.101358 
L 553.743469 100.286034 
L 554.363034 101.621664 
L 554.982599 102.0369 
L 555.602164 103.721272 
L 556.221729 101.922507 
L 558.080424 101.876253 
L 558.699989 102.745745 
L 559.93912 107.82772 
L 560.558685 111.171601 
L 562.41738 110.744246 
L 563.036945 109.977709 
L 563.65651 111.504621 
L 564.276075 112.222006 
L 564.89564 110.611415 
L 566.754335 109.237549 
L 567.3739 108.489502 
L 567.993465 108.131332 
L 568.61303 107.189783 
L 571.09129 105.779458 
L 571.710855 106.83352 
L 572.33042 106.844463 
L 572.949985 107.366544 
L 573.56955 111.293307 
L 575.428245 113.180296 
L 576.04781 117.864899 
L 576.667375 118.316438 
L 577.28694 120.809083 
L 581.00433 118.809791 
L 581.623895 121.379403 
L 582.24346 123.407476 
L 584.102156 127.839371 
L 585.341286 122.263625 
L 585.960851 117.010973 
L 586.580416 116.940562 
L 588.439111 118.870017 
L 589.058676 116.381525 
L 589.678241 118.869703 
L 590.297806 117.414797 
L 590.917371 115.672418 
L 592.776066 114.508561 
L 593.395631 118.66027 
L 594.015196 120.208703 
L 594.634761 119.367183 
L 595.254326 121.114366 
L 597.732586 120.454047 
L 598.352151 119.385647 
L 598.971716 120.453838 
L 599.591281 120.996082 
L 602.689106 124.774996 
L 603.308671 127.04144 
L 603.928236 125.524557 
L 605.786931 120.608138 
L 606.406496 123.785444 
L 607.026061 122.489146 
L 610.123887 121.452949 
L 610.743452 120.562564 
L 611.363017 122.669459 
L 611.982582 123.661805 
L 612.602147 126.097985 
L 615.080407 130.115139 
L 615.699972 128.774129 
L 616.319537 131.563229 
L 616.939102 129.72111 
L 618.797797 126.392795 
L 619.417362 124.753397 
L 620.036927 124.995189 
L 621.276057 120.01191 
L 623.134752 115.890575 
L 623.754317 117.153965 
L 624.993447 124.219615 
L 627.471707 119.722532 
L 628.091272 120.538275 
L 628.710837 122.862334 
L 629.949967 120.817127 
L 631.808662 119.419417 
L 632.428227 122.801324 
L 633.047792 122.101019 
L 633.667358 121.049831 
L 634.286923 120.497297 
L 636.145618 120.594923 
L 636.765183 119.565385 
L 637.384748 119.586645 
L 638.004313 121.327116 
L 638.623878 120.979393 
L 641.721703 116.362485 
L 642.341268 116.303513 
L 642.960833 116.594719 
L 644.819528 113.675659 
L 645.439093 112.236188 
L 646.058658 110.041722 
L 647.297788 108.204747 
L 649.776048 107.224833 
L 650.395613 109.727324 
L 651.015178 111.700525 
L 651.634743 111.235797 
L 654.113003 110.749914 
L 654.732568 109.039164 
L 655.971698 103.546757 
L 657.830393 104.315672 
L 658.449959 101.022798 
L 659.069524 98.899501 
L 659.689089 99.093969 
L 660.308654 99.767373 
L 662.786914 97.599887 
L 663.406479 96.359532 
L 664.026044 95.600464 
L 664.645609 96.146207 
L 666.504304 95.882659 
L 667.123869 95.372043 
L 667.743434 95.541178 
L 670.841259 96.807206 
L 671.460824 99.763038 
L 672.080389 99.578703 
L 672.699954 99.754602 
L 673.319519 98.356631 
L 675.178214 98.342867 
L 675.797779 98.989266 
L 676.417344 98.163547 
L 677.036909 95.838077 
L 677.656474 94.634391 
L 680.134734 93.207273 
L 680.754299 94.117873 
L 681.373864 95.556665 
L 681.993429 96.180865 
L 683.852125 94.877698 
L 684.47169 94.092069 
L 685.091255 94.128032 
L 685.71082 93.94704 
L 686.330385 93.573748 
L 688.18908 93.662964 
L 688.808645 95.207767 
L 689.42821 95.111473 
L 690.047775 95.296643 
L 690.66734 96.116799 
L 690.66734 96.116799 
" clip-path="url(#p5151405195)" style="fill: none; stroke: #1f77b4; stroke-width: 2; stroke-linecap: square"/>
   </g>
   <g id="patch_3">
    <path d="M 69.984 405.504 
L 69.984 78.336 
" style="fill: none; stroke: #000000; stroke-width: 0.8; stroke-linejoin: miter; stroke-linecap: square"/>
   </g>
   <g id="patch_4">
    <path d="M 699.84 405.504 
L 699.84 78.336 
" style="fill: none; stroke: #000000; stroke-width: 0.8; stroke-linejoin: miter; stroke-linecap: square"/>
   </g>
   <g id="patch_5">
    <path d="M 69.984 405.504 
L 699.84 405.504 
" style="fill: none; stroke: #000000; stroke-width: 0.8; stroke-linejoin: miter; stroke-linecap: square"/>
   </g>
   <g id="legend_1">
    <g id="line2d_20">
     <path d="M 78.084 90.124594 
L 87.084 90.124594 
L 96.084 90.124594 
" style="fill: none; stroke: #1f77b4; stroke-width: 2; stroke-linecap: square"/>
    </g>
    <g id="text_14">
     <!-- Official ARS/USD exchange rate -->
     <g transform="translate(103.284 93.274594) scale(0.09 -0.09)">
      <defs>
       <path id="DejaVuSans-32" d="M 2522 4238 
Q 1834 4238 1429 3725 
Q 1025 3213 1025 2328 
Q 1025 1447 1429 934 
Q 1834 422 2522 422 
Q 3209 422 3611 934 
Q 4013 1447 4013 2328 
Q 4013 3213 3611 3725 
Q 3209 4238 2522 4238 
z
M 2522 4750 
Q 3503 4750 4090 4092 
Q 4678 3434 4678 2328 
Q 4678 1225 4090 567 
Q 3503 -91 2522 -91 
Q 1538 -91 948 565 
Q 359 1222 359 2328 
Q 359 3434 948 4092 
Q 1538 4750 2522 4750 
z
" transform="scale(0.015625)"/>
       <path id="DejaVuSans-13b1" d="M 2375 4863 
L 2375 4384 
L 1825 4384 
Q 1516 4384 1394 4259 
Q 1275 4134 1275 3809 
L 1275 3500 
L 2853 3500 
L 2853 3744 
Q 2853 4328 3125 4594 
Q 3213 4681 3334 4741 
Q 3578 4863 3988 4863 
L 4531 4863 
L 4531 4384 
L 3981 4384 
Q 3672 4384 3551 4259 
Q 3431 4134 3431 3809 
L 3431 3500 
L 5588 3500 
L 5588 0 
L 5009 0 
L 5009 3053 
L 3431 3053 
L 3431 0 
L 2853 0 
L 2853 3053 
L 1275 3053 
L 1275 0 
L 697 0 
L 697 3053 
L 147 3053 
L 147 3500 
L 697 3500 
L 697 3744 
Q 697 4328 969 4595 
Q 1241 4863 1831 4863 
L 2375 4863 
z
M 5009 4856 
L 5588 4856 
L 5588 4128 
L 5009 4128 
L 5009 4856 
z
" transform="scale(0.015625)"/>
       <path id="DejaVuSans-46" d="M 3122 3366 
L 3122 2828 
Q 2878 2963 2633 3030 
Q 2388 3097 2138 3097 
Q 1578 3097 1268 2742 
Q 959 2388 959 1747 
Q 959 1106 1268 751 
Q 1578 397 2138 397 
Q 2388 397 2633 464 
Q 2878 531 3122 666 
L 3122 134 
Q 2881 22 2623 -34 
Q 2366 -91 2075 -91 
Q 1284 -91 818 406 
Q 353 903 353 1747 
Q 353 2603 823 3093 
Q 1294 3584 2113 3584 
Q 2378 3584 2631 3529 
Q 2884 3475 3122 3366 
z
" transform="scale(0.015625)"/>
       <path id="DejaVuSans-4c" d="M 603 3500 
L 1178 3500 
L 1178 0 
L 603 0 
L 603 3500 
z
M 603 4863 
L 1178 4863 
L 1178 4134 
L 603 4134 
L 603 4863 
z
" transform="scale(0.015625)"/>
       <path id="DejaVuSans-44" d="M 2194 1759 
Q 1497 1759 1228 1600 
Q 959 1441 959 1056 
Q 959 750 1161 570 
Q 1363 391 1709 391 
Q 2188 391 2477 730 
Q 2766 1069 2766 1631 
L 2766 1759 
L 2194 1759 
z
M 3341 1997 
L 3341 0 
L 2766 0 
L 2766 531 
Q 2569 213 2275 61 
Q 1981 -91 1556 -91 
Q 1019 -91 701 211 
Q 384 513 384 1019 
Q 384 1609 779 1909 
Q 1175 2209 1959 2209 
L 2766 2209 
L 2766 2266 
Q 2766 2663 2505 2880 
Q 2244 3097 1772 3097 
Q 1472 3097 1187 3025 
Q 903 2953 641 2809 
L 641 3341 
Q 956 3463 1253 3523 
Q 1550 3584 1831 3584 
Q 2591 3584 2966 3190 
Q 3341 2797 3341 1997 
z
" transform="scale(0.015625)"/>
       <path id="DejaVuSans-12" d="M 1625 4666 
L 2156 4666 
L 531 -594 
L 0 -594 
L 1625 4666 
z
" transform="scale(0.015625)"/>
       <path id="DejaVuSans-5b" d="M 3513 3500 
L 2247 1797 
L 3578 0 
L 2900 0 
L 1881 1375 
L 863 0 
L 184 0 
L 1544 1831 
L 300 3500 
L 978 3500 
L 1906 2253 
L 2834 3500 
L 3513 3500 
z
" transform="scale(0.015625)"/>
       <path id="DejaVuSans-4b" d="M 3513 2113 
L 3513 0 
L 2938 0 
L 2938 2094 
Q 2938 2591 2744 2837 
Q 2550 3084 2163 3084 
Q 1697 3084 1428 2787 
Q 1159 2491 1159 1978 
L 1159 0 
L 581 0 
L 581 4863 
L 1159 4863 
L 1159 2956 
Q 1366 3272 1645 3428 
Q 1925 3584 2291 3584 
Q 2894 3584 3203 3211 
Q 3513 2838 3513 2113 
z
" transform="scale(0.015625)"/>
       <path id="DejaVuSans-51" d="M 3513 2113 
L 3513 0 
L 2938 0 
L 2938 2094 
Q 2938 2591 2744 2837 
Q 2550 3084 2163 3084 
Q 1697 3084 1428 2787 
Q 1159 2491 1159 1978 
L 1159 0 
L 581 0 
L 581 3500 
L 1159 3500 
L 1159 2956 
Q 1366 3272 1645 3428 
Q 1925 3584 2291 3584 
Q 2894 3584 3203 3211 
Q 3513 2838 3513 2113 
z
" transform="scale(0.015625)"/>
       <path id="DejaVuSans-4a" d="M 2906 1791 
Q 2906 2416 2648 2759 
Q 2391 3103 1925 3103 
Q 1463 3103 1205 2759 
Q 947 2416 947 1791 
Q 947 1169 1205 825 
Q 1463 481 1925 481 
Q 2391 481 2648 825 
Q 2906 1169 2906 1791 
z
M 3481 434 
Q 3481 -459 3084 -895 
Q 2688 -1331 1869 -1331 
Q 1566 -1331 1297 -1286 
Q 1028 -1241 775 -1147 
L 775 -588 
Q 1028 -725 1275 -790 
Q 1522 -856 1778 -856 
Q 2344 -856 2625 -561 
Q 2906 -266 2906 331 
L 2906 616 
Q 2728 306 2450 153 
Q 2172 0 1784 0 
Q 1141 0 747 490 
Q 353 981 353 1791 
Q 353 2603 747 3093 
Q 1141 3584 1784 3584 
Q 2172 3584 2450 3431 
Q 2728 3278 2906 2969 
L 2906 3500 
L 3481 3500 
L 3481 434 
z
" transform="scale(0.015625)"/>
       <path id="DejaVuSans-57" d="M 1172 4494 
L 1172 3500 
L 2356 3500 
L 2356 3053 
L 1172 3053 
L 1172 1153 
Q 1172 725 1289 603 
Q 1406 481 1766 481 
L 2356 481 
L 2356 0 
L 1766 0 
Q 1100 0 847 248 
Q 594 497 594 1153 
L 594 3053 
L 172 3053 
L 172 3500 
L 594 3500 
L 594 4494 
L 1172 4494 
z
" transform="scale(0.015625)"/>
      </defs>
      <use xlink:href="#DejaVuSans-32"/>
      <use xlink:href="#DejaVuSans-13b1" transform="translate(78.71875 0)"/>
      <use xlink:href="#DejaVuSans-46" transform="translate(175.40625 0)"/>
      <use xlink:href="#DejaVuSans-4c" transform="translate(230.390625 0)"/>
      <use xlink:href="#DejaVuSans-44" transform="translate(258.171875 0)"/>
      <use xlink:href="#DejaVuSans-4f" transform="translate(319.453125 0)"/>
      <use xlink:href="#DejaVuSans-3" transform="translate(347.234375 0)"/>
      <use xlink:href="#DejaVuSans-24" transform="translate(379.015625 0)"/>
      <use xlink:href="#DejaVuSans-35" transform="translate(447.421875 0)"/>
      <use xlink:href="#DejaVuSans-36" transform="translate(516.90625 0)"/>
      <use xlink:href="#DejaVuSans-12" transform="translate(580.390625 0)"/>
      <use xlink:href="#DejaVuSans-38" transform="translate(614.078125 0)"/>
      <use xlink:href="#DejaVuSans-36" transform="translate(687.265625 0)"/>
      <use xlink:href="#DejaVuSans-27" transform="translate(750.75 0)"/>
      <use xlink:href="#DejaVuSans-3" transform="translate(827.75 0)"/>
      <use xlink:href="#DejaVuSans-48" transform="translate(859.53125 0)"/>
      <use xlink:href="#DejaVuSans-5b" transform="translate(919.3125 0)"/>
      <use xlink:href="#DejaVuSans-46" transform="translate(976.75 0)"/>
      <use xlink:href="#DejaVuSans-4b" transform="translate(1031.734375 0)"/>
      <use xlink:href="#DejaVuSans-44" transform="translate(1095.109375 0)"/>
      <use xlink:href="#DejaVuSans-51" transform="translate(1156.390625 0)"/>
      <use xlink:href="#DejaVuSans-4a" transform="translate(1219.765625 0)"/>
      <use xlink:href="#DejaVuSans-48" transform="translate(1283.25 0)"/>
      <use xlink:href="#DejaVuSans-3" transform="translate(1344.78125 0)"/>
      <use xlink:href="#DejaVuSans-55" transform="translate(1376.5625 0)"/>
      <use xlink:href="#DejaVuSans-44" transform="translate(1417.671875 0)"/>
      <use xlink:href="#DejaVuSans-57" transform="translate(1478.953125 0)"/>
      <use xlink:href="#DejaVuSans-48" transform="translate(1518.15625 0)"/>
     </g>
    </g>
    <g id="line2d_21">
     <path d="M 78.084 103.625297 
L 87.084 103.625297 
L 96.084 103.625297 
" style="fill: none; stroke: #1f77b4; stroke-width: 2; stroke-linecap: square"/>
    </g>
    <g id="text_15">
     <!-- Real effective exchange-rate index -->
     <g transform="translate(103.284 106.775297) scale(0.09 -0.09)">
      <defs>
       <path id="DejaVuSans-13ae" d="M 4531 4863 
L 4531 4384 
L 3981 4384 
Q 3672 4384 3551 4259 
Q 3431 4134 3431 3809 
L 3431 3500 
L 4378 3500 
L 4378 3053 
L 3431 3053 
L 3431 0 
L 2853 0 
L 2853 3053 
L 1275 3053 
L 1275 0 
L 697 0 
L 697 3053 
L 147 3053 
L 147 3500 
L 697 3500 
L 697 3744 
Q 697 4328 969 4595 
Q 1241 4863 1831 4863 
L 2375 4863 
L 2375 4384 
L 1825 4384 
Q 1516 4384 1394 4259 
Q 1275 4134 1275 3809 
L 1275 3500 
L 2853 3500 
L 2853 3744 
Q 2853 4328 3125 4595 
Q 3397 4863 3988 4863 
L 4531 4863 
z
" transform="scale(0.015625)"/>
       <path id="DejaVuSans-59" d="M 191 3500 
L 800 3500 
L 1894 563 
L 2988 3500 
L 3597 3500 
L 2284 0 
L 1503 0 
L 191 3500 
z
" transform="scale(0.015625)"/>
       <path id="DejaVuSans-10" d="M 313 2009 
L 1997 2009 
L 1997 1497 
L 313 1497 
L 313 2009 
z
" transform="scale(0.015625)"/>
       <path id="DejaVuSans-47" d="M 2906 2969 
L 2906 4863 
L 3481 4863 
L 3481 0 
L 2906 0 
L 2906 525 
Q 2725 213 2448 61 
Q 2172 -91 1784 -91 
Q 1150 -91 751 415 
Q 353 922 353 1747 
Q 353 2572 751 3078 
Q 1150 3584 1784 3584 
Q 2172 3584 2448 3432 
Q 2725 3281 2906 2969 
z
M 947 1747 
Q 947 1113 1208 752 
Q 1469 391 1925 391 
Q 2381 391 2643 752 
Q 2906 1113 2906 1747 
Q 2906 2381 2643 2742 
Q 2381 3103 1925 3103 
Q 1469 3103 1208 2742 
Q 947 2381 947 1747 
z
" transform="scale(0.015625)"/>
      </defs>
      <use xlink:href="#DejaVuSans-35"/>
      <use xlink:href="#DejaVuSans-48" transform="translate(65 0)"/>
      <use xlink:href="#DejaVuSans-44" transform="translate(126.53125 0)"/>
      <use xlink:href="#DejaVuSans-4f" transform="translate(187.8125 0)"/>
      <use xlink:href="#DejaVuSans-3" transform="translate(215.59375 0)"/>
      <use xlink:href="#DejaVuSans-48" transform="translate(247.375 0)"/>
      <use xlink:href="#DejaVuSans-13ae" transform="translate(308.90625 0)"/>
      <use xlink:href="#DejaVuSans-48" transform="translate(377.796875 0)"/>
      <use xlink:href="#DejaVuSans-46" transform="translate(439.328125 0)"/>
      <use xlink:href="#DejaVuSans-57" transform="translate(494.3125 0)"/>
      <use xlink:href="#DejaVuSans-4c" transform="translate(533.515625 0)"/>
      <use xlink:href="#DejaVuSans-59" transform="translate(561.296875 0)"/>
      <use xlink:href="#DejaVuSans-48" transform="translate(620.484375 0)"/>
      <use xlink:href="#DejaVuSans-3" transform="translate(682.015625 0)"/>
      <use xlink:href="#DejaVuSans-48" transform="translate(713.796875 0)"/>
      <use xlink:href="#DejaVuSans-5b" transform="translate(773.578125 0)"/>
      <use xlink:href="#DejaVuSans-46" transform="translate(831.015625 0)"/>
      <use xlink:href="#DejaVuSans-4b" transform="translate(886 0)"/>
      <use xlink:href="#DejaVuSans-44" transform="translate(949.375 0)"/>
      <use xlink:href="#DejaVuSans-51" transform="translate(1010.65625 0)"/>
      <use xlink:href="#DejaVuSans-4a" transform="translate(1074.03125 0)"/>
      <use xlink:href="#DejaVuSans-48" transform="translate(1137.515625 0)"/>
      <use xlink:href="#DejaVuSans-10" transform="translate(1199.046875 0)"/>
      <use xlink:href="#DejaVuSans-55" transform="translate(1235.125 0)"/>
      <use xlink:href="#DejaVuSans-44" transform="translate(1276.234375 0)"/>
      <use xlink:href="#DejaVuSans-57" transform="translate(1337.515625 0)"/>
      <use xlink:href="#DejaVuSans-48" transform="translate(1376.71875 0)"/>
      <use xlink:href="#DejaVuSans-3" transform="translate(1438.25 0)"/>
      <use xlink:href="#DejaVuSans-4c" transform="translate(1470.03125 0)"/>
      <use xlink:href="#DejaVuSans-51" transform="translate(1497.8125 0)"/>
      <use xlink:href="#DejaVuSans-47" transform="translate(1561.1875 0)"/>
      <use xlink:href="#DejaVuSans-48" transform="translate(1624.671875 0)"/>
      <use xlink:href="#DejaVuSans-5b" transform="translate(1684.453125 0)"/>
     </g>
    </g>
   </g>
  </g>
  <g id="axes_2">
   <g id="matplotlib.axis_3">
    <g id="ytick_7">
     <g id="line2d_22">
      <defs>
       <path id="mf69fbb1298" d="M 0 0 
L 3.5 0 
" style="stroke: #000000; stroke-width: 0.8"/>
      </defs>
      <g>
       <use xlink:href="#mf69fbb1298" x="699.84" y="389.359331" style="stroke: #000000; stroke-width: 0.8"/>
      </g>
     </g>
     <g id="text_16">
      <!-- 80 -->
      <g transform="translate(706.84 392.968218) scale(0.095 -0.095)">
       <use xlink:href="#DejaVuSans-1b"/>
       <use xlink:href="#DejaVuSans-13" transform="translate(63.625 0)"/>
      </g>
     </g>
    </g>
    <g id="ytick_8">
     <g id="line2d_23">
      <g>
       <use xlink:href="#mf69fbb1298" x="699.84" y="333.252178" style="stroke: #000000; stroke-width: 0.8"/>
      </g>
     </g>
     <g id="text_17">
      <!-- 90 -->
      <g transform="translate(706.84 336.861065) scale(0.095 -0.095)">
       <defs>
        <path id="DejaVuSans-1c" d="M 703 97 
L 703 672 
Q 941 559 1184 500 
Q 1428 441 1663 441 
Q 2288 441 2617 861 
Q 2947 1281 2994 2138 
Q 2813 1869 2534 1725 
Q 2256 1581 1919 1581 
Q 1219 1581 811 2004 
Q 403 2428 403 3163 
Q 403 3881 828 4315 
Q 1253 4750 1959 4750 
Q 2769 4750 3195 4129 
Q 3622 3509 3622 2328 
Q 3622 1225 3098 567 
Q 2575 -91 1691 -91 
Q 1453 -91 1209 -44 
Q 966 3 703 97 
z
M 1959 2075 
Q 2384 2075 2632 2365 
Q 2881 2656 2881 3163 
Q 2881 3666 2632 3958 
Q 2384 4250 1959 4250 
Q 1534 4250 1286 3958 
Q 1038 3666 1038 3163 
Q 1038 2656 1286 2365 
Q 1534 2075 1959 2075 
z
" transform="scale(0.015625)"/>
       </defs>
       <use xlink:href="#DejaVuSans-1c"/>
       <use xlink:href="#DejaVuSans-13" transform="translate(63.625 0)"/>
      </g>
     </g>
    </g>
    <g id="ytick_9">
     <g id="line2d_24">
      <g>
       <use xlink:href="#mf69fbb1298" x="699.84" y="277.145025" style="stroke: #000000; stroke-width: 0.8"/>
      </g>
     </g>
     <g id="text_18">
      <!-- 100 -->
      <g transform="translate(706.84 280.753912) scale(0.095 -0.095)">
       <use xlink:href="#DejaVuSans-14"/>
       <use xlink:href="#DejaVuSans-13" transform="translate(63.625 0)"/>
       <use xlink:href="#DejaVuSans-13" transform="translate(127.25 0)"/>
      </g>
     </g>
    </g>
    <g id="ytick_10">
     <g id="line2d_25">
      <g>
       <use xlink:href="#mf69fbb1298" x="699.84" y="221.037872" style="stroke: #000000; stroke-width: 0.8"/>
      </g>
     </g>
     <g id="text_19">
      <!-- 110 -->
      <g transform="translate(706.84 224.646759) scale(0.095 -0.095)">
       <use xlink:href="#DejaVuSans-14"/>
       <use xlink:href="#DejaVuSans-14" transform="translate(63.625 0)"/>
       <use xlink:href="#DejaVuSans-13" transform="translate(127.25 0)"/>
      </g>
     </g>
    </g>
    <g id="ytick_11">
     <g id="line2d_26">
      <g>
       <use xlink:href="#mf69fbb1298" x="699.84" y="164.930719" style="stroke: #000000; stroke-width: 0.8"/>
      </g>
     </g>
     <g id="text_20">
      <!-- 120 -->
      <g transform="translate(706.84 168.539606) scale(0.095 -0.095)">
       <use xlink:href="#DejaVuSans-14"/>
       <use xlink:href="#DejaVuSans-15" transform="translate(63.625 0)"/>
       <use xlink:href="#DejaVuSans-13" transform="translate(127.25 0)"/>
      </g>
     </g>
    </g>
    <g id="ytick_12">
     <g id="line2d_27">
      <g>
       <use xlink:href="#mf69fbb1298" x="699.84" y="108.823566" style="stroke: #000000; stroke-width: 0.8"/>
      </g>
     </g>
     <g id="text_21">
      <!-- 130 -->
      <g transform="translate(706.84 112.432452) scale(0.095 -0.095)">
       <defs>
        <path id="DejaVuSans-16" d="M 2597 2516 
Q 3050 2419 3304 2112 
Q 3559 1806 3559 1356 
Q 3559 666 3084 287 
Q 2609 -91 1734 -91 
Q 1441 -91 1130 -33 
Q 819 25 488 141 
L 488 750 
Q 750 597 1062 519 
Q 1375 441 1716 441 
Q 2309 441 2620 675 
Q 2931 909 2931 1356 
Q 2931 1769 2642 2001 
Q 2353 2234 1838 2234 
L 1294 2234 
L 1294 2753 
L 1863 2753 
Q 2328 2753 2575 2939 
Q 2822 3125 2822 3475 
Q 2822 3834 2567 4026 
Q 2313 4219 1838 4219 
Q 1578 4219 1281 4162 
Q 984 4106 628 3988 
L 628 4550 
Q 988 4650 1302 4700 
Q 1616 4750 1894 4750 
Q 2613 4750 3031 4423 
Q 3450 4097 3450 3541 
Q 3450 3153 3228 2886 
Q 3006 2619 2597 2516 
z
" transform="scale(0.015625)"/>
       </defs>
       <use xlink:href="#DejaVuSans-14"/>
       <use xlink:href="#DejaVuSans-16" transform="translate(63.625 0)"/>
       <use xlink:href="#DejaVuSans-13" transform="translate(127.25 0)"/>
      </g>
     </g>
    </g>
    <g id="text_22">
     <!-- Index -->
     <g transform="translate(736.571563 255.686406) rotate(-90) scale(0.1 -0.1)">
      <defs>
       <path id="DejaVuSans-2c" d="M 628 4666 
L 1259 4666 
L 1259 0 
L 628 0 
L 628 4666 
z
" transform="scale(0.015625)"/>
      </defs>
      <use xlink:href="#DejaVuSans-2c"/>
      <use xlink:href="#DejaVuSans-51" transform="translate(29.5 0)"/>
      <use xlink:href="#DejaVuSans-47" transform="translate(92.875 0)"/>
      <use xlink:href="#DejaVuSans-48" transform="translate(156.359375 0)"/>
      <use xlink:href="#DejaVuSans-5b" transform="translate(216.140625 0)"/>
     </g>
    </g>
   </g>
   <g id="line2d_28">
    <path d="M 79.15666 137.597655 
L 98.363176 93.207273 
L 117.569692 188.743773 
L 135.537077 244.189159 
L 154.743593 293.829488 
L 173.330544 314.004786 
L 192.53706 333.822059 
L 211.124011 345.153094 
L 230.330526 349.192147 
L 249.537042 355.452488 
L 268.123993 366.699708 
L 287.330509 379.5642 
L 305.917459 390.632727 
" clip-path="url(#p5151405195)" style="fill: none; stroke: #1f77b4; stroke-width: 2; stroke-linecap: square"/>
   </g>
   <g id="patch_6">
    <path d="M 69.984 405.504 
L 69.984 78.336 
" style="fill: none; stroke: #000000; stroke-width: 0.8; stroke-linejoin: miter; stroke-linecap: square"/>
   </g>
   <g id="patch_7">
    <path d="M 699.84 405.504 
L 699.84 78.336 
" style="fill: none; stroke: #000000; stroke-width: 0.8; stroke-linejoin: miter; stroke-linecap: square"/>
   </g>
   <g id="patch_8">
    <path d="M 69.984 405.504 
L 699.84 405.504 
" style="fill: none; stroke: #000000; stroke-width: 0.8; stroke-linejoin: miter; stroke-linecap: square"/>
   </g>
  </g>
  <g id="text_23">
   <!-- Nominal vs real exchange-rate movement -->
   <g transform="translate(69.984 31.349344) scale(0.17 -0.17)">
    <defs>
     <path id="DejaVuSans-Bold-31" d="M 588 4666 
L 1931 4666 
L 3628 1466 
L 3628 4666 
L 4769 4666 
L 4769 0 
L 3425 0 
L 1728 3200 
L 1728 0 
L 588 0 
L 588 4666 
z
" transform="scale(0.015625)"/>
     <path id="DejaVuSans-Bold-52" d="M 2203 2784 
Q 1831 2784 1636 2517 
Q 1441 2250 1441 1747 
Q 1441 1244 1636 976 
Q 1831 709 2203 709 
Q 2569 709 2762 976 
Q 2956 1244 2956 1747 
Q 2956 2250 2762 2517 
Q 2569 2784 2203 2784 
z
M 2203 3584 
Q 3106 3584 3614 3096 
Q 4122 2609 4122 1747 
Q 4122 884 3614 396 
Q 3106 -91 2203 -91 
Q 1297 -91 786 396 
Q 275 884 275 1747 
Q 275 2609 786 3096 
Q 1297 3584 2203 3584 
z
" transform="scale(0.015625)"/>
     <path id="DejaVuSans-Bold-50" d="M 3781 2919 
Q 3994 3244 4286 3414 
Q 4578 3584 4928 3584 
Q 5531 3584 5847 3212 
Q 6163 2841 6163 2131 
L 6163 0 
L 5038 0 
L 5038 1825 
Q 5041 1866 5042 1909 
Q 5044 1953 5044 2034 
Q 5044 2406 4934 2573 
Q 4825 2741 4581 2741 
Q 4263 2741 4089 2478 
Q 3916 2216 3909 1719 
L 3909 0 
L 2784 0 
L 2784 1825 
Q 2784 2406 2684 2573 
Q 2584 2741 2328 2741 
Q 2006 2741 1831 2477 
Q 1656 2213 1656 1722 
L 1656 0 
L 531 0 
L 531 3500 
L 1656 3500 
L 1656 2988 
Q 1863 3284 2130 3434 
Q 2397 3584 2719 3584 
Q 3081 3584 3359 3409 
Q 3638 3234 3781 2919 
z
" transform="scale(0.015625)"/>
     <path id="DejaVuSans-Bold-4c" d="M 538 3500 
L 1656 3500 
L 1656 0 
L 538 0 
L 538 3500 
z
M 538 4863 
L 1656 4863 
L 1656 3950 
L 538 3950 
L 538 4863 
z
" transform="scale(0.015625)"/>
     <path id="DejaVuSans-Bold-51" d="M 4056 2131 
L 4056 0 
L 2931 0 
L 2931 347 
L 2931 1631 
Q 2931 2084 2911 2256 
Q 2891 2428 2841 2509 
Q 2775 2619 2662 2680 
Q 2550 2741 2406 2741 
Q 2056 2741 1856 2470 
Q 1656 2200 1656 1722 
L 1656 0 
L 538 0 
L 538 3500 
L 1656 3500 
L 1656 2988 
Q 1909 3294 2193 3439 
Q 2478 3584 2822 3584 
Q 3428 3584 3742 3212 
Q 4056 2841 4056 2131 
z
" transform="scale(0.015625)"/>
     <path id="DejaVuSans-Bold-44" d="M 2106 1575 
Q 1756 1575 1579 1456 
Q 1403 1338 1403 1106 
Q 1403 894 1545 773 
Q 1688 653 1941 653 
Q 2256 653 2472 879 
Q 2688 1106 2688 1447 
L 2688 1575 
L 2106 1575 
z
M 3816 1997 
L 3816 0 
L 2688 0 
L 2688 519 
Q 2463 200 2181 54 
Q 1900 -91 1497 -91 
Q 953 -91 614 226 
Q 275 544 275 1050 
Q 275 1666 698 1953 
Q 1122 2241 2028 2241 
L 2688 2241 
L 2688 2328 
Q 2688 2594 2478 2717 
Q 2269 2841 1825 2841 
Q 1466 2841 1156 2769 
Q 847 2697 581 2553 
L 581 3406 
Q 941 3494 1303 3539 
Q 1666 3584 2028 3584 
Q 2975 3584 3395 3211 
Q 3816 2838 3816 1997 
z
" transform="scale(0.015625)"/>
     <path id="DejaVuSans-Bold-4f" d="M 538 4863 
L 1656 4863 
L 1656 0 
L 538 0 
L 538 4863 
z
" transform="scale(0.015625)"/>
     <path id="DejaVuSans-Bold-3" transform="scale(0.015625)"/>
     <path id="DejaVuSans-Bold-59" d="M 97 3500 
L 1216 3500 
L 2088 1081 
L 2956 3500 
L 4078 3500 
L 2700 0 
L 1472 0 
L 97 3500 
z
" transform="scale(0.015625)"/>
     <path id="DejaVuSans-Bold-56" d="M 3272 3391 
L 3272 2541 
Q 2913 2691 2578 2766 
Q 2244 2841 1947 2841 
Q 1628 2841 1473 2761 
Q 1319 2681 1319 2516 
Q 1319 2381 1436 2309 
Q 1553 2238 1856 2203 
L 2053 2175 
Q 2913 2066 3209 1816 
Q 3506 1566 3506 1031 
Q 3506 472 3093 190 
Q 2681 -91 1863 -91 
Q 1516 -91 1145 -36 
Q 775 19 384 128 
L 384 978 
Q 719 816 1070 734 
Q 1422 653 1784 653 
Q 2113 653 2278 743 
Q 2444 834 2444 1013 
Q 2444 1163 2330 1236 
Q 2216 1309 1875 1350 
L 1678 1375 
Q 931 1469 631 1722 
Q 331 1975 331 2491 
Q 331 3047 712 3315 
Q 1094 3584 1881 3584 
Q 2191 3584 2531 3537 
Q 2872 3491 3272 3391 
z
" transform="scale(0.015625)"/>
     <path id="DejaVuSans-Bold-55" d="M 3138 2547 
Q 2991 2616 2845 2648 
Q 2700 2681 2553 2681 
Q 2122 2681 1889 2404 
Q 1656 2128 1656 1613 
L 1656 0 
L 538 0 
L 538 3500 
L 1656 3500 
L 1656 2925 
Q 1872 3269 2151 3426 
Q 2431 3584 2822 3584 
Q 2878 3584 2943 3579 
Q 3009 3575 3134 3559 
L 3138 2547 
z
" transform="scale(0.015625)"/>
     <path id="DejaVuSans-Bold-48" d="M 4031 1759 
L 4031 1441 
L 1416 1441 
Q 1456 1047 1700 850 
Q 1944 653 2381 653 
Q 2734 653 3104 758 
Q 3475 863 3866 1075 
L 3866 213 
Q 3469 63 3072 -14 
Q 2675 -91 2278 -91 
Q 1328 -91 801 392 
Q 275 875 275 1747 
Q 275 2603 792 3093 
Q 1309 3584 2216 3584 
Q 3041 3584 3536 3087 
Q 4031 2591 4031 1759 
z
M 2881 2131 
Q 2881 2450 2695 2645 
Q 2509 2841 2209 2841 
Q 1884 2841 1681 2658 
Q 1478 2475 1428 2131 
L 2881 2131 
z
" transform="scale(0.015625)"/>
     <path id="DejaVuSans-Bold-5b" d="M 1422 1791 
L 159 3500 
L 1344 3500 
L 2059 2463 
L 2784 3500 
L 3969 3500 
L 2706 1797 
L 4031 0 
L 2847 0 
L 2059 1106 
L 1281 0 
L 97 0 
L 1422 1791 
z
" transform="scale(0.015625)"/>
     <path id="DejaVuSans-Bold-46" d="M 3366 3391 
L 3366 2478 
Q 3138 2634 2908 2709 
Q 2678 2784 2431 2784 
Q 1963 2784 1702 2511 
Q 1441 2238 1441 1747 
Q 1441 1256 1702 982 
Q 1963 709 2431 709 
Q 2694 709 2930 787 
Q 3166 866 3366 1019 
L 3366 103 
Q 3103 6 2833 -42 
Q 2563 -91 2291 -91 
Q 1344 -91 809 395 
Q 275 881 275 1747 
Q 275 2613 809 3098 
Q 1344 3584 2291 3584 
Q 2566 3584 2833 3536 
Q 3100 3488 3366 3391 
z
" transform="scale(0.015625)"/>
     <path id="DejaVuSans-Bold-4b" d="M 4056 2131 
L 4056 0 
L 2931 0 
L 2931 347 
L 2931 1625 
Q 2931 2084 2911 2256 
Q 2891 2428 2841 2509 
Q 2775 2619 2662 2680 
Q 2550 2741 2406 2741 
Q 2056 2741 1856 2470 
Q 1656 2200 1656 1722 
L 1656 0 
L 538 0 
L 538 4863 
L 1656 4863 
L 1656 2988 
Q 1909 3294 2193 3439 
Q 2478 3584 2822 3584 
Q 3428 3584 3742 3212 
Q 4056 2841 4056 2131 
z
" transform="scale(0.015625)"/>
     <path id="DejaVuSans-Bold-4a" d="M 2919 594 
Q 2688 288 2409 144 
Q 2131 0 1766 0 
Q 1125 0 706 504 
Q 288 1009 288 1791 
Q 288 2575 706 3076 
Q 1125 3578 1766 3578 
Q 2131 3578 2409 3434 
Q 2688 3291 2919 2981 
L 2919 3500 
L 4044 3500 
L 4044 353 
Q 4044 -491 3511 -936 
Q 2978 -1381 1966 -1381 
Q 1638 -1381 1331 -1331 
Q 1025 -1281 716 -1178 
L 716 -306 
Q 1009 -475 1290 -558 
Q 1572 -641 1856 -641 
Q 2406 -641 2662 -400 
Q 2919 -159 2919 353 
L 2919 594 
z
M 2181 2772 
Q 1834 2772 1640 2515 
Q 1447 2259 1447 1791 
Q 1447 1309 1634 1061 
Q 1822 813 2181 813 
Q 2531 813 2725 1069 
Q 2919 1325 2919 1791 
Q 2919 2259 2725 2515 
Q 2531 2772 2181 2772 
z
" transform="scale(0.015625)"/>
     <path id="DejaVuSans-Bold-10" d="M 347 2297 
L 2309 2297 
L 2309 1388 
L 347 1388 
L 347 2297 
z
" transform="scale(0.015625)"/>
     <path id="DejaVuSans-Bold-57" d="M 1759 4494 
L 1759 3500 
L 2913 3500 
L 2913 2700 
L 1759 2700 
L 1759 1216 
Q 1759 972 1856 886 
Q 1953 800 2241 800 
L 2816 800 
L 2816 0 
L 1856 0 
Q 1194 0 917 276 
Q 641 553 641 1216 
L 641 2700 
L 84 2700 
L 84 3500 
L 641 3500 
L 641 4494 
L 1759 4494 
z
" transform="scale(0.015625)"/>
    </defs>
    <use xlink:href="#DejaVuSans-Bold-31"/>
    <use xlink:href="#DejaVuSans-Bold-52" transform="translate(83.6875 0)"/>
    <use xlink:href="#DejaVuSans-Bold-50" transform="translate(152.390625 0)"/>
    <use xlink:href="#DejaVuSans-Bold-4c" transform="translate(256.59375 0)"/>
    <use xlink:href="#DejaVuSans-Bold-51" transform="translate(290.875 0)"/>
    <use xlink:href="#DejaVuSans-Bold-44" transform="translate(362.0625 0)"/>
    <use xlink:href="#DejaVuSans-Bold-4f" transform="translate(429.546875 0)"/>
    <use xlink:href="#DejaVuSans-Bold-3" transform="translate(463.828125 0)"/>
    <use xlink:href="#DejaVuSans-Bold-59" transform="translate(498.640625 0)"/>
    <use xlink:href="#DejaVuSans-Bold-56" transform="translate(563.828125 0)"/>
    <use xlink:href="#DejaVuSans-Bold-3" transform="translate(623.34375 0)"/>
    <use xlink:href="#DejaVuSans-Bold-55" transform="translate(658.15625 0)"/>
    <use xlink:href="#DejaVuSans-Bold-48" transform="translate(707.46875 0)"/>
    <use xlink:href="#DejaVuSans-Bold-44" transform="translate(775.296875 0)"/>
    <use xlink:href="#DejaVuSans-Bold-4f" transform="translate(842.78125 0)"/>
    <use xlink:href="#DejaVuSans-Bold-3" transform="translate(877.0625 0)"/>
    <use xlink:href="#DejaVuSans-Bold-48" transform="translate(911.875 0)"/>
    <use xlink:href="#DejaVuSans-Bold-5b" transform="translate(979.703125 0)"/>
    <use xlink:href="#DejaVuSans-Bold-46" transform="translate(1044.203125 0)"/>
    <use xlink:href="#DejaVuSans-Bold-4b" transform="translate(1103.484375 0)"/>
    <use xlink:href="#DejaVuSans-Bold-44" transform="translate(1174.671875 0)"/>
    <use xlink:href="#DejaVuSans-Bold-51" transform="translate(1242.15625 0)"/>
    <use xlink:href="#DejaVuSans-Bold-4a" transform="translate(1313.34375 0)"/>
    <use xlink:href="#DejaVuSans-Bold-48" transform="translate(1384.921875 0)"/>
    <use xlink:href="#DejaVuSans-Bold-10" transform="translate(1452.75 0)"/>
    <use xlink:href="#DejaVuSans-Bold-55" transform="translate(1494.25 0)"/>
    <use xlink:href="#DejaVuSans-Bold-44" transform="translate(1543.5625 0)"/>
    <use xlink:href="#DejaVuSans-Bold-57" transform="translate(1611.046875 0)"/>
    <use xlink:href="#DejaVuSans-Bold-48" transform="translate(1658.84375 0)"/>
    <use xlink:href="#DejaVuSans-Bold-3" transform="translate(1726.671875 0)"/>
    <use xlink:href="#DejaVuSans-Bold-50" transform="translate(1761.484375 0)"/>
    <use xlink:href="#DejaVuSans-Bold-52" transform="translate(1865.6875 0)"/>
    <use xlink:href="#DejaVuSans-Bold-59" transform="translate(1934.390625 0)"/>
    <use xlink:href="#DejaVuSans-Bold-48" transform="translate(1999.578125 0)"/>
    <use xlink:href="#DejaVuSans-Bold-50" transform="translate(2067.40625 0)"/>
    <use xlink:href="#DejaVuSans-Bold-48" transform="translate(2171.609375 0)"/>
    <use xlink:href="#DejaVuSans-Bold-51" transform="translate(2239.4375 0)"/>
    <use xlink:href="#DejaVuSans-Bold-57" transform="translate(2310.625 0)"/>
   </g>
  </g>
  <g id="text_24">
   <!-- Since Dec 2023 · ARS per USD · Index -->
   <g style="opacity: 0.8" transform="translate(69.984 46.08) scale(0.102 -0.102)">
    <defs>
     <path id="DejaVuSans-79" d="M 684 2619 
L 1344 2619 
L 1344 1825 
L 684 1825 
L 684 2619 
z
" transform="scale(0.015625)"/>
    </defs>
    <use xlink:href="#DejaVuSans-36"/>
    <use xlink:href="#DejaVuSans-4c" transform="translate(63.484375 0)"/>
    <use xlink:href="#DejaVuSans-51" transform="translate(91.265625 0)"/>
    <use xlink:href="#DejaVuSans-46" transform="translate(154.640625 0)"/>
    <use xlink:href="#DejaVuSans-48" transform="translate(209.625 0)"/>
    <use xlink:href="#DejaVuSans-3" transform="translate(271.15625 0)"/>
    <use xlink:href="#DejaVuSans-27" transform="translate(302.9375 0)"/>
    <use xlink:href="#DejaVuSans-48" transform="translate(379.9375 0)"/>
    <use xlink:href="#DejaVuSans-46" transform="translate(441.46875 0)"/>
    <use xlink:href="#DejaVuSans-3" transform="translate(496.453125 0)"/>
    <use xlink:href="#DejaVuSans-15" transform="translate(528.234375 0)"/>
    <use xlink:href="#DejaVuSans-13" transform="translate(591.859375 0)"/>
    <use xlink:href="#DejaVuSans-15" transform="translate(655.484375 0)"/>
    <use xlink:href="#DejaVuSans-16" transform="translate(719.109375 0)"/>
    <use xlink:href="#DejaVuSans-3" transform="translate(782.734375 0)"/>
    <use xlink:href="#DejaVuSans-79" transform="translate(814.515625 0)"/>
    <use xlink:href="#DejaVuSans-3" transform="translate(846.296875 0)"/>
    <use xlink:href="#DejaVuSans-24" transform="translate(878.078125 0)"/>
    <use xlink:href="#DejaVuSans-35" transform="translate(946.484375 0)"/>
    <use xlink:href="#DejaVuSans-36" transform="translate(1015.96875 0)"/>
    <use xlink:href="#DejaVuSans-3" transform="translate(1079.453125 0)"/>
    <use xlink:href="#DejaVuSans-53" transform="translate(1111.234375 0)"/>
    <use xlink:href="#DejaVuSans-48" transform="translate(1174.71875 0)"/>
    <use xlink:href="#DejaVuSans-55" transform="translate(1236.25 0)"/>
    <use xlink:href="#DejaVuSans-3" transform="translate(1277.359375 0)"/>
    <use xlink:href="#DejaVuSans-38" transform="translate(1309.140625 0)"/>
    <use xlink:href="#DejaVuSans-36" transform="translate(1382.328125 0)"/>
    <use xlink:href="#DejaVuSans-27" transform="translate(1445.8125 0)"/>
    <use xlink:href="#DejaVuSans-3" transform="translate(1522.8125 0)"/>
    <use xlink:href="#DejaVuSans-79" transform="translate(1554.59375 0)"/>
    <use xlink:href="#DejaVuSans-3" transform="translate(1586.375 0)"/>
    <use xlink:href="#DejaVuSans-2c" transform="translate(1618.15625 0)"/>
    <use xlink:href="#DejaVuSans-51" transform="translate(1647.65625 0)"/>
    <use xlink:href="#DejaVuSans-47" transform="translate(1711.03125 0)"/>
    <use xlink:href="#DejaVuSans-48" transform="translate(1774.515625 0)"/>
    <use xlink:href="#DejaVuSans-5b" transform="translate(1834.296875 0)"/>
   </g>
  </g>
  <g id="text_25">
   <!-- Source: BCRA, Datos Argentina · data through Aug 2026 · at least one source snapshot flagged stale -->
   <g style="opacity: 0.72" transform="translate(69.984 444.672) scale(0.085 -0.085)">
    <defs>
     <path id="DejaVuSans-52" d="M 1959 3097 
Q 1497 3097 1228 2736 
Q 959 2375 959 1747 
Q 959 1119 1226 758 
Q 1494 397 1959 397 
Q 2419 397 2687 759 
Q 2956 1122 2956 1747 
Q 2956 2369 2687 2733 
Q 2419 3097 1959 3097 
z
M 1959 3584 
Q 2709 3584 3137 3096 
Q 3566 2609 3566 1747 
Q 3566 888 3137 398 
Q 2709 -91 1959 -91 
Q 1206 -91 779 398 
Q 353 888 353 1747 
Q 353 2609 779 3096 
Q 1206 3584 1959 3584 
z
" transform="scale(0.015625)"/>
     <path id="DejaVuSans-1d" d="M 750 794 
L 1409 794 
L 1409 0 
L 750 0 
L 750 794 
z
M 750 3309 
L 1409 3309 
L 1409 2516 
L 750 2516 
L 750 3309 
z
" transform="scale(0.015625)"/>
     <path id="DejaVuSans-25" d="M 1259 2228 
L 1259 519 
L 2272 519 
Q 2781 519 3026 730 
Q 3272 941 3272 1375 
Q 3272 1813 3026 2020 
Q 2781 2228 2272 2228 
L 1259 2228 
z
M 1259 4147 
L 1259 2741 
L 2194 2741 
Q 2656 2741 2882 2914 
Q 3109 3088 3109 3444 
Q 3109 3797 2882 3972 
Q 2656 4147 2194 4147 
L 1259 4147 
z
M 628 4666 
L 2241 4666 
Q 2963 4666 3353 4366 
Q 3744 4066 3744 3513 
Q 3744 3084 3544 2831 
Q 3344 2578 2956 2516 
Q 3422 2416 3680 2098 
Q 3938 1781 3938 1306 
Q 3938 681 3513 340 
Q 3088 0 2303 0 
L 628 0 
L 628 4666 
z
" transform="scale(0.015625)"/>
     <path id="DejaVuSans-26" d="M 4122 4306 
L 4122 3641 
Q 3803 3938 3442 4084 
Q 3081 4231 2675 4231 
Q 1875 4231 1450 3742 
Q 1025 3253 1025 2328 
Q 1025 1406 1450 917 
Q 1875 428 2675 428 
Q 3081 428 3442 575 
Q 3803 722 4122 1019 
L 4122 359 
Q 3791 134 3420 21 
Q 3050 -91 2638 -91 
Q 1578 -91 968 557 
Q 359 1206 359 2328 
Q 359 3453 968 4101 
Q 1578 4750 2638 4750 
Q 3056 4750 3426 4639 
Q 3797 4528 4122 4306 
z
" transform="scale(0.015625)"/>
     <path id="DejaVuSans-f" d="M 750 794 
L 1409 794 
L 1409 256 
L 897 -744 
L 494 -744 
L 750 256 
L 750 794 
z
" transform="scale(0.015625)"/>
     <path id="DejaVuSans-56" d="M 2834 3397 
L 2834 2853 
Q 2591 2978 2328 3040 
Q 2066 3103 1784 3103 
Q 1356 3103 1142 2972 
Q 928 2841 928 2578 
Q 928 2378 1081 2264 
Q 1234 2150 1697 2047 
L 1894 2003 
Q 2506 1872 2764 1633 
Q 3022 1394 3022 966 
Q 3022 478 2636 193 
Q 2250 -91 1575 -91 
Q 1294 -91 989 -36 
Q 684 19 347 128 
L 347 722 
Q 666 556 975 473 
Q 1284 391 1588 391 
Q 1994 391 2212 530 
Q 2431 669 2431 922 
Q 2431 1156 2273 1281 
Q 2116 1406 1581 1522 
L 1381 1569 
Q 847 1681 609 1914 
Q 372 2147 372 2553 
Q 372 3047 722 3315 
Q 1072 3584 1716 3584 
Q 2034 3584 2315 3537 
Q 2597 3491 2834 3397 
z
" transform="scale(0.015625)"/>
     <path id="DejaVuSans-13b0" d="M 1831 4863 
L 3431 4863 
L 3431 0 
L 2853 0 
L 2853 4384 
L 1825 4384 
Q 1516 4384 1395 4259 
Q 1275 4134 1275 3809 
L 1275 3500 
L 2222 3500 
L 2222 3053 
L 1275 3053 
L 1275 0 
L 697 0 
L 697 3053 
L 147 3053 
L 147 3500 
L 697 3500 
L 697 3744 
Q 697 4328 969 4595 
Q 1241 4863 1831 4863 
z
" transform="scale(0.015625)"/>
    </defs>
    <use xlink:href="#DejaVuSans-36"/>
    <use xlink:href="#DejaVuSans-52" transform="translate(63.484375 0)"/>
    <use xlink:href="#DejaVuSans-58" transform="translate(124.671875 0)"/>
    <use xlink:href="#DejaVuSans-55" transform="translate(188.046875 0)"/>
    <use xlink:href="#DejaVuSans-46" transform="translate(226.953125 0)"/>
    <use xlink:href="#DejaVuSans-48" transform="translate(281.9375 0)"/>
    <use xlink:href="#DejaVuSans-1d" transform="translate(343.46875 0)"/>
    <use xlink:href="#DejaVuSans-3" transform="translate(377.15625 0)"/>
    <use xlink:href="#DejaVuSans-25" transform="translate(408.9375 0)"/>
    <use xlink:href="#DejaVuSans-26" transform="translate(475.796875 0)"/>
    <use xlink:href="#DejaVuSans-35" transform="translate(545.625 0)"/>
    <use xlink:href="#DejaVuSans-24" transform="translate(611.0625 0)"/>
    <use xlink:href="#DejaVuSans-f" transform="translate(679.46875 0)"/>
    <use xlink:href="#DejaVuSans-3" transform="translate(711.25 0)"/>
    <use xlink:href="#DejaVuSans-27" transform="translate(743.03125 0)"/>
    <use xlink:href="#DejaVuSans-44" transform="translate(820.03125 0)"/>
    <use xlink:href="#DejaVuSans-57" transform="translate(881.3125 0)"/>
    <use xlink:href="#DejaVuSans-52" transform="translate(920.515625 0)"/>
    <use xlink:href="#DejaVuSans-56" transform="translate(981.703125 0)"/>
    <use xlink:href="#DejaVuSans-3" transform="translate(1033.796875 0)"/>
    <use xlink:href="#DejaVuSans-24" transform="translate(1065.578125 0)"/>
    <use xlink:href="#DejaVuSans-55" transform="translate(1133.984375 0)"/>
    <use xlink:href="#DejaVuSans-4a" transform="translate(1173.34375 0)"/>
    <use xlink:href="#DejaVuSans-48" transform="translate(1236.828125 0)"/>
    <use xlink:href="#DejaVuSans-51" transform="translate(1298.359375 0)"/>
    <use xlink:href="#DejaVuSans-57" transform="translate(1361.734375 0)"/>
    <use xlink:href="#DejaVuSans-4c" transform="translate(1400.9375 0)"/>
    <use xlink:href="#DejaVuSans-51" transform="translate(1428.71875 0)"/>
    <use xlink:href="#DejaVuSans-44" transform="translate(1492.09375 0)"/>
    <use xlink:href="#DejaVuSans-3" transform="translate(1553.375 0)"/>
    <use xlink:href="#DejaVuSans-79" transform="translate(1585.15625 0)"/>
    <use xlink:href="#DejaVuSans-3" transform="translate(1616.9375 0)"/>
    <use xlink:href="#DejaVuSans-47" transform="translate(1648.71875 0)"/>
    <use xlink:href="#DejaVuSans-44" transform="translate(1712.203125 0)"/>
    <use xlink:href="#DejaVuSans-57" transform="translate(1773.484375 0)"/>
    <use xlink:href="#DejaVuSans-44" transform="translate(1812.6875 0)"/>
    <use xlink:href="#DejaVuSans-3" transform="translate(1873.96875 0)"/>
    <use xlink:href="#DejaVuSans-57" transform="translate(1905.75 0)"/>
    <use xlink:href="#DejaVuSans-4b" transform="translate(1944.953125 0)"/>
    <use xlink:href="#DejaVuSans-55" transform="translate(2008.328125 0)"/>
    <use xlink:href="#DejaVuSans-52" transform="translate(2047.234375 0)"/>
    <use xlink:href="#DejaVuSans-58" transform="translate(2108.421875 0)"/>
    <use xlink:href="#DejaVuSans-4a" transform="translate(2171.796875 0)"/>
    <use xlink:href="#DejaVuSans-4b" transform="translate(2235.28125 0)"/>
    <use xlink:href="#DejaVuSans-3" transform="translate(2298.65625 0)"/>
    <use xlink:href="#DejaVuSans-24" transform="translate(2330.4375 0)"/>
    <use xlink:href="#DejaVuSans-58" transform="translate(2398.84375 0)"/>
    <use xlink:href="#DejaVuSans-4a" transform="translate(2462.21875 0)"/>
    <use xlink:href="#DejaVuSans-3" transform="translate(2525.703125 0)"/>
    <use xlink:href="#DejaVuSans-15" transform="translate(2557.484375 0)"/>
    <use xlink:href="#DejaVuSans-13" transform="translate(2621.109375 0)"/>
    <use xlink:href="#DejaVuSans-15" transform="translate(2684.734375 0)"/>
    <use xlink:href="#DejaVuSans-19" transform="translate(2748.359375 0)"/>
    <use xlink:href="#DejaVuSans-3" transform="translate(2811.984375 0)"/>
    <use xlink:href="#DejaVuSans-79" transform="translate(2843.765625 0)"/>
    <use xlink:href="#DejaVuSans-3" transform="translate(2875.546875 0)"/>
    <use xlink:href="#DejaVuSans-44" transform="translate(2907.328125 0)"/>
    <use xlink:href="#DejaVuSans-57" transform="translate(2968.609375 0)"/>
    <use xlink:href="#DejaVuSans-3" transform="translate(3007.8125 0)"/>
    <use xlink:href="#DejaVuSans-4f" transform="translate(3039.59375 0)"/>
    <use xlink:href="#DejaVuSans-48" transform="translate(3067.375 0)"/>
    <use xlink:href="#DejaVuSans-44" transform="translate(3128.90625 0)"/>
    <use xlink:href="#DejaVuSans-56" transform="translate(3190.1875 0)"/>
    <use xlink:href="#DejaVuSans-57" transform="translate(3242.28125 0)"/>
    <use xlink:href="#DejaVuSans-3" transform="translate(3281.484375 0)"/>
    <use xlink:href="#DejaVuSans-52" transform="translate(3313.265625 0)"/>
    <use xlink:href="#DejaVuSans-51" transform="translate(3374.453125 0)"/>
    <use xlink:href="#DejaVuSans-48" transform="translate(3437.828125 0)"/>
    <use xlink:href="#DejaVuSans-3" transform="translate(3499.359375 0)"/>
    <use xlink:href="#DejaVuSans-56" transform="translate(3531.140625 0)"/>
    <use xlink:href="#DejaVuSans-52" transform="translate(3583.234375 0)"/>
    <use xlink:href="#DejaVuSans-58" transform="translate(3644.421875 0)"/>
    <use xlink:href="#DejaVuSans-55" transform="translate(3707.796875 0)"/>
    <use xlink:href="#DejaVuSans-46" transform="translate(3746.703125 0)"/>
    <use xlink:href="#DejaVuSans-48" transform="translate(3801.6875 0)"/>
    <use xlink:href="#DejaVuSans-3" transform="translate(3863.21875 0)"/>
    <use xlink:href="#DejaVuSans-56" transform="translate(3895 0)"/>
    <use xlink:href="#DejaVuSans-51" transform="translate(3947.09375 0)"/>
    <use xlink:href="#DejaVuSans-44" transform="translate(4010.46875 0)"/>
    <use xlink:href="#DejaVuSans-53" transform="translate(4071.75 0)"/>
    <use xlink:href="#DejaVuSans-56" transform="translate(4135.234375 0)"/>
    <use xlink:href="#DejaVuSans-4b" transform="translate(4187.328125 0)"/>
    <use xlink:href="#DejaVuSans-52" transform="translate(4250.703125 0)"/>
    <use xlink:href="#DejaVuSans-57" transform="translate(4311.890625 0)"/>
    <use xlink:href="#DejaVuSans-3" transform="translate(4351.09375 0)"/>
    <use xlink:href="#DejaVuSans-13b0" transform="translate(4382.875 0)"/>
    <use xlink:href="#DejaVuSans-44" transform="translate(4445.859375 0)"/>
    <use xlink:href="#DejaVuSans-4a" transform="translate(4507.140625 0)"/>
    <use xlink:href="#DejaVuSans-4a" transform="translate(4570.625 0)"/>
    <use xlink:href="#DejaVuSans-48" transform="translate(4634.109375 0)"/>
    <use xlink:href="#DejaVuSans-47" transform="translate(4695.640625 0)"/>
    <use xlink:href="#DejaVuSans-3" transform="translate(4759.125 0)"/>
    <use xlink:href="#DejaVuSans-56" transform="translate(4790.90625 0)"/>
    <use xlink:href="#DejaVuSans-57" transform="translate(4843 0)"/>
    <use xlink:href="#DejaVuSans-44" transform="translate(4882.203125 0)"/>
    <use xlink:href="#DejaVuSans-4f" transform="translate(4943.484375 0)"/>
    <use xlink:href="#DejaVuSans-48" transform="translate(4971.265625 0)"/>
   </g>
  </g>
 </g>
 <defs>
  <clipPath id="p5151405195">
   <rect x="69.984" y="78.336" width="629.856" height="327.168"/>
  </clipPath>
 </defs>
</svg>
